<?xml version="1.0" encoding="UTF-8" standalone="no"?>
<!DOCTYPE svg PUBLIC "-//W3C//DTD SVG 1.1//EN"
 "http://www.w3.org/Graphics/SVG/1.1/DTD/svg11.dtd">
<!-- Generated by graphviz version 2.46.1 (20210213.1702)
 -->
<!-- Pages: 1 -->
<svg width="834pt" height="404pt"
 viewBox="0.00 0.00 833.61 404.00" xmlns="http://www.w3.org/2000/svg" xmlns:xlink="http://www.w3.org/1999/xlink">
<g id="graph0" class="graph" transform="scale(1 1) rotate(0) translate(4 400)">
<polygon fill="white" stroke="transparent" points="-4,4 -4,-400 829.61,-400 829.61,4 -4,4"/>
<!-- [root] aws_iam_group.devops (expand) -->
<g id="node1" class="node">
<title>[root] aws_iam_group.devops (expand)</title>
<polygon fill="none" stroke="black" points="285.48,-180 139.48,-180 139.48,-144 285.48,-144 285.48,-180"/>
<text text-anchor="middle" x="212.48" y="-158.3" font-family="Times,serif" font-size="14.00">aws_iam_group.devops</text>
</g>
<!-- [root] provider[&quot;registry.terraform.io/hashicorp/aws&quot;] -->
<g id="node5" class="node">
<title>[root] provider[&quot;registry.terraform.io/hashicorp/aws&quot;]</title>
<polygon fill="none" stroke="black" points="433.48,-108 180.94,-90 433.48,-72 686.02,-90 433.48,-108"/>
<text text-anchor="middle" x="433.48" y="-86.3" font-family="Times,serif" font-size="14.00">provider[&quot;registry.terraform.io/hashicorp/aws&quot;]</text>
</g>
<!-- [root] aws_iam_group.devops (expand)&#45;&gt;[root] provider[&quot;registry.terraform.io/hashicorp/aws&quot;] -->
<g id="edge1" class="edge">
<title>[root] aws_iam_group.devops (expand)&#45;&gt;[root] provider[&quot;registry.terraform.io/hashicorp/aws&quot;]</title>
<path fill="none" stroke="black" d="M266.26,-143.97C300.68,-133.06 345.18,-118.97 379.61,-108.06"/>
<polygon fill="black" stroke="black" points="381.02,-111.29 389.5,-104.93 378.91,-104.61 381.02,-111.29"/>
</g>
<!-- [root] aws_iam_group_policy_attachment.policy_attach (expand) -->
<g id="node2" class="node">
<title>[root] aws_iam_group_policy_attachment.policy_attach (expand)</title>
<polygon fill="none" stroke="black" points="820.98,-252 533.98,-252 533.98,-216 820.98,-216 820.98,-252"/>
<text text-anchor="middle" x="677.48" y="-230.3" font-family="Times,serif" font-size="14.00">aws_iam_group_policy_attachment.policy_attach</text>
</g>
<!-- [root] aws_iam_group_policy_attachment.policy_attach (expand)&#45;&gt;[root] provider[&quot;registry.terraform.io/hashicorp/aws&quot;] -->
<g id="edge2" class="edge">
<title>[root] aws_iam_group_policy_attachment.policy_attach (expand)&#45;&gt;[root] provider[&quot;registry.terraform.io/hashicorp/aws&quot;]</title>
<path fill="none" stroke="black" d="M648.05,-215.87C602.92,-189.61 516.79,-139.48 468.51,-111.39"/>
<polygon fill="black" stroke="black" points="470.07,-108.25 459.67,-106.24 466.55,-114.3 470.07,-108.25"/>
</g>
<!-- [root] aws_iam_user.devops_user (expand) -->
<g id="node3" class="node">
<title>[root] aws_iam_user.devops_user (expand)</title>
<polygon fill="none" stroke="black" points="515.98,-252 350.98,-252 350.98,-216 515.98,-216 515.98,-252"/>
<text text-anchor="middle" x="433.48" y="-230.3" font-family="Times,serif" font-size="14.00">aws_iam_user.devops_user</text>
</g>
<!-- [root] aws_iam_user.devops_user (expand)&#45;&gt;[root] provider[&quot;registry.terraform.io/hashicorp/aws&quot;] -->
<g id="edge3" class="edge">
<title>[root] aws_iam_user.devops_user (expand)&#45;&gt;[root] provider[&quot;registry.terraform.io/hashicorp/aws&quot;]</title>
<path fill="none" stroke="black" d="M433.48,-215.87C433.48,-191.67 433.48,-147.21 433.48,-118.39"/>
<polygon fill="black" stroke="black" points="436.98,-118.19 433.48,-108.19 429.98,-118.19 436.98,-118.19"/>
</g>
<!-- [root] var.users -->
<g id="node7" class="node">
<title>[root] var.users</title>
<polygon fill="none" stroke="black" points="386.98,-180 327.98,-180 327.98,-144 392.98,-144 392.98,-174 386.98,-180"/>
<polyline fill="none" stroke="black" points="386.98,-180 386.98,-174 "/>
<polyline fill="none" stroke="black" points="392.98,-174 386.98,-174 "/>
<text text-anchor="middle" x="360.48" y="-158.3" font-family="Times,serif" font-size="14.00">var.users</text>
</g>
<!-- [root] aws_iam_user.devops_user (expand)&#45;&gt;[root] var.users -->
<g id="edge4" class="edge">
<title>[root] aws_iam_user.devops_user (expand)&#45;&gt;[root] var.users</title>
<path fill="none" stroke="black" d="M415.43,-215.7C406.42,-207.05 395.36,-196.45 385.54,-187.03"/>
<polygon fill="black" stroke="black" points="387.96,-184.5 378.32,-180.1 383.11,-189.55 387.96,-184.5"/>
</g>
<!-- [root] aws_iam_user_group_membership.grp_mem (expand) -->
<g id="node4" class="node">
<title>[root] aws_iam_user_group_membership.grp_mem (expand)</title>
<polygon fill="none" stroke="black" points="332.98,-252 67.98,-252 67.98,-216 332.98,-216 332.98,-252"/>
<text text-anchor="middle" x="200.48" y="-230.3" font-family="Times,serif" font-size="14.00">aws_iam_user_group_membership.grp_mem</text>
</g>
<!-- [root] aws_iam_user_group_membership.grp_mem (expand)&#45;&gt;[root] aws_iam_group.devops (expand) -->
<g id="edge5" class="edge">
<title>[root] aws_iam_user_group_membership.grp_mem (expand)&#45;&gt;[root] aws_iam_group.devops (expand)</title>
<path fill="none" stroke="black" d="M203.45,-215.7C204.77,-207.98 206.36,-198.71 207.83,-190.11"/>
<polygon fill="black" stroke="black" points="211.31,-190.55 209.55,-180.1 204.41,-189.37 211.31,-190.55"/>
</g>
<!-- [root] aws_iam_user_group_membership.grp_mem (expand)&#45;&gt;[root] var.users -->
<g id="edge6" class="edge">
<title>[root] aws_iam_user_group_membership.grp_mem (expand)&#45;&gt;[root] var.users</title>
<path fill="none" stroke="black" d="M239.62,-215.88C263.55,-205.41 294.15,-192.02 318.57,-181.34"/>
<polygon fill="black" stroke="black" points="320.18,-184.45 327.94,-177.24 317.37,-178.04 320.18,-184.45"/>
</g>
<!-- [root] var.aws_region -->
<g id="node6" class="node">
<title>[root] var.aws_region</title>
<polygon fill="none" stroke="black" points="476.98,-36 383.98,-36 383.98,0 482.98,0 482.98,-30 476.98,-36"/>
<polyline fill="none" stroke="black" points="476.98,-36 476.98,-30 "/>
<polyline fill="none" stroke="black" points="482.98,-30 476.98,-30 "/>
<text text-anchor="middle" x="433.48" y="-14.3" font-family="Times,serif" font-size="14.00">var.aws_region</text>
</g>
<!-- [root] provider[&quot;registry.terraform.io/hashicorp/aws&quot;]&#45;&gt;[root] var.aws_region -->
<g id="edge13" class="edge">
<title>[root] provider[&quot;registry.terraform.io/hashicorp/aws&quot;]&#45;&gt;[root] var.aws_region</title>
<path fill="none" stroke="black" d="M433.48,-71.7C433.48,-63.98 433.48,-54.71 433.48,-46.11"/>
<polygon fill="black" stroke="black" points="436.98,-46.1 433.48,-36.1 429.98,-46.1 436.98,-46.1"/>
</g>
<!-- [root] meta.count&#45;boundary (EachMode fixup) -->
<g id="node8" class="node">
<title>[root] meta.count&#45;boundary (EachMode fixup)</title>
<ellipse fill="none" stroke="black" cx="649.48" cy="-306" rx="176.27" ry="18"/>
<text text-anchor="middle" x="649.48" y="-302.3" font-family="Times,serif" font-size="14.00">[root] meta.count&#45;boundary (EachMode fixup)</text>
</g>
<!-- [root] meta.count&#45;boundary (EachMode fixup)&#45;&gt;[root] aws_iam_group_policy_attachment.policy_attach (expand) -->
<g id="edge7" class="edge">
<title>[root] meta.count&#45;boundary (EachMode fixup)&#45;&gt;[root] aws_iam_group_policy_attachment.policy_attach (expand)</title>
<path fill="none" stroke="black" d="M656.4,-287.7C659.55,-279.81 663.36,-270.3 666.86,-261.55"/>
<polygon fill="black" stroke="black" points="670.17,-262.69 670.64,-252.1 663.67,-260.09 670.17,-262.69"/>
</g>
<!-- [root] meta.count&#45;boundary (EachMode fixup)&#45;&gt;[root] aws_iam_user.devops_user (expand) -->
<g id="edge8" class="edge">
<title>[root] meta.count&#45;boundary (EachMode fixup)&#45;&gt;[root] aws_iam_user.devops_user (expand)</title>
<path fill="none" stroke="black" d="M599.11,-288.68C568.38,-278.72 528.85,-265.91 496.11,-255.3"/>
<polygon fill="black" stroke="black" points="496.78,-251.84 486.19,-252.08 494.62,-258.49 496.78,-251.84"/>
</g>
<!-- [root] meta.count&#45;boundary (EachMode fixup)&#45;&gt;[root] aws_iam_user_group_membership.grp_mem (expand) -->
<g id="edge9" class="edge">
<title>[root] meta.count&#45;boundary (EachMode fixup)&#45;&gt;[root] aws_iam_user_group_membership.grp_mem (expand)</title>
<path fill="none" stroke="black" d="M557.26,-290.62C488.49,-279.9 393.98,-265.17 319.5,-253.56"/>
<polygon fill="black" stroke="black" points="320.02,-250.09 309.6,-252.01 318.94,-257.01 320.02,-250.09"/>
</g>
<!-- [root] provider[&quot;registry.terraform.io/hashicorp/aws&quot;] (close) -->
<g id="node9" class="node">
<title>[root] provider[&quot;registry.terraform.io/hashicorp/aws&quot;] (close)</title>
<ellipse fill="none" stroke="black" cx="227.48" cy="-306" rx="227.46" ry="18"/>
<text text-anchor="middle" x="227.48" y="-302.3" font-family="Times,serif" font-size="14.00">[root] provider[&quot;registry.terraform.io/hashicorp/aws&quot;] (close)</text>
</g>
<!-- [root] provider[&quot;registry.terraform.io/hashicorp/aws&quot;] (close)&#45;&gt;[root] aws_iam_group_policy_attachment.policy_attach (expand) -->
<g id="edge10" class="edge">
<title>[root] provider[&quot;registry.terraform.io/hashicorp/aws&quot;] (close)&#45;&gt;[root] aws_iam_group_policy_attachment.policy_attach (expand)</title>
<path fill="none" stroke="black" d="M325.68,-289.72C393.97,-279.1 485.41,-264.88 557.94,-253.59"/>
<polygon fill="black" stroke="black" points="558.7,-257.02 568.05,-252.02 557.63,-250.1 558.7,-257.02"/>
</g>
<!-- [root] provider[&quot;registry.terraform.io/hashicorp/aws&quot;] (close)&#45;&gt;[root] aws_iam_user.devops_user (expand) -->
<g id="edge11" class="edge">
<title>[root] provider[&quot;registry.terraform.io/hashicorp/aws&quot;] (close)&#45;&gt;[root] aws_iam_user.devops_user (expand)</title>
<path fill="none" stroke="black" d="M276.3,-288.41C305.39,-278.52 342.55,-265.9 373.43,-255.4"/>
<polygon fill="black" stroke="black" points="374.88,-258.61 383.22,-252.08 372.63,-251.98 374.88,-258.61"/>
</g>
<!-- [root] provider[&quot;registry.terraform.io/hashicorp/aws&quot;] (close)&#45;&gt;[root] aws_iam_user_group_membership.grp_mem (expand) -->
<g id="edge12" class="edge">
<title>[root] provider[&quot;registry.terraform.io/hashicorp/aws&quot;] (close)&#45;&gt;[root] aws_iam_user_group_membership.grp_mem (expand)</title>
<path fill="none" stroke="black" d="M220.81,-287.7C217.76,-279.81 214.1,-270.3 210.72,-261.55"/>
<polygon fill="black" stroke="black" points="213.94,-260.17 207.08,-252.1 207.41,-262.69 213.94,-260.17"/>
</g>
<!-- [root] root -->
<g id="node10" class="node">
<title>[root] root</title>
<ellipse fill="none" stroke="black" cx="438.48" cy="-378" rx="47.39" ry="18"/>
<text text-anchor="middle" x="438.48" y="-374.3" font-family="Times,serif" font-size="14.00">[root] root</text>
</g>
<!-- [root] root&#45;&gt;[root] meta.count&#45;boundary (EachMode fixup) -->
<g id="edge14" class="edge">
<title>[root] root&#45;&gt;[root] meta.count&#45;boundary (EachMode fixup)</title>
<path fill="none" stroke="black" d="M473.32,-365.44C505.13,-354.89 552.79,-339.08 590.52,-326.56"/>
<polygon fill="black" stroke="black" points="591.99,-329.76 600.38,-323.29 589.78,-323.12 591.99,-329.76"/>
</g>
<!-- [root] root&#45;&gt;[root] provider[&quot;registry.terraform.io/hashicorp/aws&quot;] (close) -->
<g id="edge15" class="edge">
<title>[root] root&#45;&gt;[root] provider[&quot;registry.terraform.io/hashicorp/aws&quot;] (close)</title>
<path fill="none" stroke="black" d="M403.64,-365.44C372.15,-355 325.14,-339.4 287.59,-326.94"/>
<polygon fill="black" stroke="black" points="288.37,-323.51 277.77,-323.68 286.16,-330.16 288.37,-323.51"/>
</g>
</g>
</svg>
